<?xml version="1.0" standalone="no"?>
<!DOCTYPE svg PUBLIC "-//W3C//DTD SVG 20010904//EN"
 "http://www.w3.org/TR/2001/REC-SVG-20010904/DTD/svg10.dtd">
<svg version="1.0" xmlns="http://www.w3.org/2000/svg"
 width="2070.000000pt" height="2070.000000pt" viewBox="0 0 2070.000000 2070.000000"
 preserveAspectRatio="xMidYMid meet">
<metadata>
Created by potrace 1.11, written by Peter Selinger 2001-2013
</metadata>
<g transform="translate(0.000000,2070.000000) scale(0.100000,-0.100000)"
fill="#000000" stroke="none">
<path d="M19349 19806 c-2 -2 -26 -7 -53 -10 -81 -11 -204 -42 -311 -79 -93
-32 -129 -46 -260 -101 -91 -38 -249 -119 -340 -174 -77 -46 -109 -68 -190
-124 -309 -217 -745 -693 -1167 -1273 -143 -197 -456 -676 -502 -766 -4 -8
-12 -23 -19 -34 -35 -57 -128 -217 -157 -270 -18 -33 -41 -74 -50 -90 -178
-318 -432 -852 -590 -1240 -29 -71 -58 -143 -66 -160 -79 -175 -362 -1000
-399 -1164 -2 -9 -23 -83 -45 -166 -32 -118 -98 -379 -125 -495 -15 -67 -45
-200 -49 -220 -2 -14 -16 -74 -29 -135 -21 -92 -95 -458 -111 -545 -2 -14 -14
-79 -26 -145 -12 -66 -24 -131 -26 -145 -3 -14 -11 -61 -19 -105 -8 -44 -17
-100 -20 -125 -3 -25 -8 -52 -10 -60 -2 -8 -7 -33 -10 -55 -3 -23 -7 -50 -9
-61 -2 -11 -7 -45 -11 -75 -4 -31 -10 -61 -14 -67 -5 -9 -55 4 -172 42 -188
62 -501 154 -619 181 -8 2 -26 6 -40 9 -14 3 -65 15 -115 27 -49 11 -101 23
-115 25 -14 3 -41 9 -60 14 -19 5 -55 12 -80 15 -24 4 -47 8 -50 10 -5 3 -129
26 -220 40 -14 2 -65 11 -115 19 -104 18 -400 57 -540 71 -33 3 -78 8 -100 10
-22 3 -69 7 -105 10 -36 2 -90 7 -120 10 -54 6 -115 9 -310 20 -231 13 -337
16 -689 20 l-374 5 -106 102 c-135 129 -288 254 -460 376 -265 187 -393 294
-565 470 -39 40 -128 113 -197 162 -193 137 -242 197 -252 315 -3 33 -11 74
-17 90 -7 17 -14 62 -16 100 -3 62 -11 174 -19 260 -8 102 -17 193 -20 215 -2
14 -7 59 -10 100 -4 41 -9 83 -10 92 -2 9 -7 48 -10 85 -4 37 -9 75 -10 83 -1
8 -6 40 -10 70 -3 30 -8 67 -11 81 -2 15 -6 47 -9 70 -3 24 -7 55 -10 69 -2
14 -7 50 -11 80 -4 30 -8 57 -9 60 -1 3 -5 30 -9 60 -5 30 -10 64 -12 75 -2
10 -6 35 -9 55 -3 20 -8 47 -10 60 -3 14 -12 66 -21 115 -8 50 -24 135 -35
190 -11 55 -22 109 -24 120 -11 69 -27 140 -87 385 -91 377 -248 852 -369
1117 -10 24 -19 45 -19 48 0 2 -17 39 -38 82 -21 43 -39 81 -40 86 -2 11 -108
221 -150 297 -132 242 -226 375 -367 516 -147 149 -287 250 -420 307 -33 14
-203 61 -255 72 -83 16 -220 37 -285 44 -84 9 -279 7 -355 -3 -25 -4 -58 -8
-75 -10 -240 -31 -495 -155 -658 -320 -188 -190 -281 -443 -281 -761 1 -79 11
-244 19 -287 3 -13 7 -39 9 -58 19 -138 90 -375 159 -530 11 -25 21 -47 22
-50 3 -14 129 -264 166 -330 154 -277 410 -641 675 -960 48 -58 121 -150 162
-205 136 -180 336 -424 451 -550 20 -22 74 -83 121 -135 144 -162 920 -932
1355 -1344 l79 -76 3 -132 c3 -211 3 -656 -2 -738 -5 -98 -15 -234 -18 -237
-3 -2 -35 -8 -102 -19 -42 -6 -505 -101 -540 -110 -11 -3 -31 -7 -45 -10 -28
-6 -332 -82 -450 -113 -96 -25 -362 -102 -477 -137 -48 -15 -93 -29 -99 -30
-53 -10 -784 -259 -889 -303 -11 -5 -38 -15 -60 -24 -146 -55 -264 -101 -290
-112 -16 -7 -106 -45 -200 -83 -233 -96 -564 -247 -852 -387 l-241 -117 -16
-62 c-9 -33 -37 -149 -62 -256 -25 -107 -48 -198 -51 -202 -10 -18 25 -4 135
51 118 60 431 211 437 211 1 0 45 20 96 43 174 81 194 90 369 164 492 209
1018 404 1530 565 124 38 239 74 255 78 17 5 86 25 155 45 103 30 298 84 360
100 44 11 397 98 410 100 8 2 35 8 60 14 25 5 56 12 70 15 14 2 104 20 200 40
96 19 195 38 220 41 24 4 49 9 54 12 8 5 2 -234 -9 -382 -2 -27 -7 -106 -10
-175 -6 -125 -9 -164 -20 -340 -4 -52 -8 -124 -10 -160 -6 -81 -15 -209 -21
-274 -2 -27 -6 -83 -9 -125 -3 -42 -7 -103 -10 -136 -3 -33 -7 -85 -10 -115
-3 -30 -7 -82 -10 -115 -3 -33 -7 -89 -10 -125 -3 -36 -8 -81 -10 -100 -2 -19
-7 -64 -10 -100 -4 -36 -8 -83 -11 -105 -2 -22 -6 -67 -9 -100 -3 -33 -7 -76
-10 -95 -2 -19 -7 -64 -10 -100 -3 -36 -7 -76 -10 -90 -2 -14 -7 -52 -10 -85
-10 -103 -22 -200 -45 -380 -5 -44 -12 -102 -15 -130 -3 -27 -8 -61 -10 -75
-2 -14 -7 -50 -10 -80 -3 -30 -8 -62 -10 -70 -4 -13 -7 -34 -20 -127 -6 -43
-15 -105 -20 -133 -3 -14 -7 -40 -10 -57 -14 -86 -31 -191 -39 -233 -20 -108
-26 -139 -31 -165 -10 -61 -31 -163 -90 -445 -39 -183 -154 -630 -221 -860
-46 -155 -196 -617 -213 -655 -5 -11 -31 -76 -57 -145 -126 -333 -317 -743
-476 -1020 -68 -120 -98 -171 -138 -235 -51 -84 -190 -296 -205 -311 -5 -7
-39 -53 -74 -104 -193 -275 -482 -575 -797 -826 -192 -152 -519 -347 -769
-457 -55 -25 -139 -63 -188 -86 -125 -59 -340 -143 -398 -156 -9 -2 -46 -13
-84 -24 -37 -12 -77 -23 -89 -25 -11 -3 -50 -11 -86 -20 -81 -19 -292 -53
-385 -62 -38 -3 -83 -8 -100 -10 -42 -5 -522 -5 -620 0 -164 10 -417 35 -505
51 -14 2 -54 9 -90 15 -36 5 -76 12 -90 15 -14 3 -41 8 -60 11 -85 13 -233 56
-325 94 -110 46 -384 178 -455 220 -25 14 -74 43 -110 62 -62 35 -142 83 -322
195 -283 176 -517 379 -668 578 -81 107 -143 259 -155 380 -4 36 -20 90 -40
135 -29 64 -53 137 -71 215 -25 114 -20 281 13 425 8 36 16 72 18 80 20 96
148 366 231 490 113 170 307 387 464 522 30 26 69 59 85 73 132 115 414 316
626 446 l97 59 21 88 c12 48 24 98 27 112 7 35 94 382 99 398 11 31 -15 5 -69
-71 -56 -79 -63 -85 -194 -162 -313 -185 -643 -421 -887 -635 -108 -94 -347
-342 -415 -430 -19 -24 -43 -53 -53 -65 -66 -74 -235 -352 -281 -464 -15 -34
-31 -70 -36 -80 -41 -71 -154 -441 -174 -566 -2 -16 -7 -50 -11 -75 -4 -25 -9
-56 -12 -70 -12 -62 -10 -400 3 -490 61 -410 211 -696 539 -1026 60 -61 151
-144 200 -184 190 -153 602 -407 860 -531 159 -76 424 -171 545 -194 8 -2 15
-4 15 -5 0 -1 7 -3 15 -5 8 -1 42 -10 75 -18 33 -9 71 -18 85 -21 31 -6 117
-24 150 -31 14 -3 39 -7 55 -10 17 -2 46 -6 65 -9 202 -32 444 -50 675 -50
113 0 390 12 420 18 11 2 52 7 90 10 39 4 81 9 95 11 14 2 45 7 70 10 70 10
99 14 190 31 81 15 98 18 146 28 11 2 70 16 130 31 60 14 117 28 127 30 95 20
475 149 612 208 831 356 1497 866 1973 1510 106 143 234 328 277 399 5 9 49
81 96 160 210 347 393 723 554 1133 134 343 306 896 390 1255 2 8 16 62 30
120 21 86 63 270 80 353 2 10 6 26 9 35 3 9 8 31 10 47 3 17 20 100 37 185 38
192 35 176 54 290 23 137 24 143 30 170 3 14 7 41 9 60 2 19 9 64 15 100 6 36
13 83 16 105 4 22 8 51 10 65 3 14 7 45 10 70 3 25 7 54 9 66 2 12 7 45 11 75
3 30 8 66 11 81 2 15 6 49 9 75 3 27 7 64 9 83 5 33 12 99 21 180 2 19 6 58
10 85 3 28 7 70 10 95 6 63 26 249 30 285 2 16 6 59 10 95 3 36 8 81 10 100 2
19 7 60 10 90 3 30 7 71 10 90 2 19 7 67 10 105 3 39 8 81 10 95 2 14 7 60 9
103 3 43 8 88 10 100 3 12 8 60 11 107 3 47 8 99 10 115 6 44 29 289 40 438 4
43 8 86 10 95 1 10 6 55 10 102 3 47 8 101 10 120 2 19 7 71 10 115 3 44 8 96
10 115 2 19 6 71 10 115 3 44 8 94 10 110 2 17 6 75 10 130 3 55 8 114 10 130
2 17 7 73 11 125 3 52 7 96 9 98 4 4 36 10 105 16 36 4 81 9 100 11 104 13
149 18 285 29 39 4 79 8 90 10 64 12 274 21 510 21 l270 0 240 -189 c132 -104
258 -203 280 -220 22 -17 42 -33 45 -36 3 -3 21 -17 40 -30 19 -13 37 -27 40
-30 13 -15 726 -553 761 -575 9 -5 63 -44 119 -85 134 -99 338 -246 370 -268
14 -9 72 -50 130 -91 297 -210 997 -667 1160 -757 19 -10 37 -21 40 -24 5 -5
86 -54 185 -111 38 -22 409 -230 468 -263 16 -9 26 -19 23 -24 -19 -31 -29
-1364 -13 -1747 14 -312 15 -337 21 -460 4 -66 8 -142 11 -170 2 -27 7 -86 10
-130 3 -44 8 -93 10 -110 2 -16 7 -63 10 -104 4 -41 8 -82 10 -91 2 -10 6 -53
10 -96 4 -43 9 -81 10 -84 2 -3 6 -34 10 -70 4 -36 8 -72 10 -80 1 -8 6 -40
10 -70 4 -30 9 -64 11 -75 2 -10 6 -37 9 -60 6 -35 23 -142 39 -231 6 -32 66
-332 70 -349 2 -5 6 -28 10 -50 5 -22 17 -76 28 -120 11 -44 21 -88 23 -98 2
-9 11 -45 20 -80 9 -34 18 -69 20 -77 11 -52 61 -238 100 -375 25 -88 47 -164
49 -170 1 -5 9 -30 16 -55 8 -25 14 -47 15 -50 1 -3 19 -59 40 -125 21 -66 39
-122 40 -125 7 -36 176 -502 207 -570 6 -14 14 -34 19 -45 59 -148 131 -301
161 -345 13 -19 27 -42 30 -51 21 -55 269 -393 373 -509 254 -283 726 -677
896 -750 84 -36 286 -86 389 -97 97 -10 396 -10 479 0 391 48 777 254 1115
593 219 219 429 501 636 854 83 140 307 579 354 690 11 25 29 68 42 95 108
239 311 775 394 1040 111 359 209 696 225 775 2 8 6 29 10 45 8 30 8 30 -12
10 -11 -11 -90 -87 -176 -168 -86 -83 -155 -156 -155 -165 1 -9 -5 -37 -12
-62 -6 -25 -13 -52 -15 -60 -2 -8 -22 -89 -45 -180 -23 -91 -43 -172 -45 -180
-7 -29 -76 -265 -112 -380 -219 -704 -488 -1262 -827 -1715 -274 -367 -579
-598 -895 -680 -196 -50 -476 -54 -721 -9 -47 9 -95 18 -107 20 -53 10 -215
68 -291 105 -330 159 -706 538 -979 987 -72 119 -273 516 -363 717 -125 283
-270 686 -355 990 -20 72 -42 150 -50 175 -14 46 -73 290 -118 485 -49 210
-127 647 -152 845 -4 30 -9 63 -11 74 -2 10 -6 44 -9 75 -5 52 -11 101 -20
161 -2 14 -6 59 -10 100 -3 41 -7 86 -10 100 -2 14 -6 68 -9 120 -4 52 -9 122
-12 155 -15 167 -27 625 -27 1015 0 364 9 789 16 796 4 4 33 -9 117 -51 93
-47 423 -181 585 -238 173 -61 273 -92 365 -112 142 -32 209 -44 345 -60 98
-12 318 -6 399 11 12 3 39 7 61 10 91 12 224 36 280 50 182 46 398 149 501
240 75 66 105 97 156 157 105 123 181 280 207 423 22 123 25 151 25 244 -1
244 -123 486 -374 740 -135 137 -161 160 -300 266 -200 154 -503 350 -830 536
-447 255 -732 394 -1143 555 -142 55 -170 70 -163 82 3 3 7 27 10 51 8 56 16
117 21 150 2 14 7 48 10 75 3 28 7 61 10 75 2 14 9 61 15 105 6 44 13 91 15
105 2 14 7 45 10 70 3 25 8 52 10 60 2 8 6 38 10 65 3 28 13 91 21 140 9 50
18 106 20 125 3 19 7 46 9 60 3 14 16 93 30 175 14 83 28 161 31 175 9 46 33
174 44 235 6 33 15 80 20 105 5 25 12 57 14 73 3 15 7 35 10 45 3 9 7 33 10
52 3 19 16 85 30 145 14 61 27 121 30 135 5 23 53 236 62 270 9 36 26 107 30
123 7 31 13 51 29 112 9 33 18 67 20 75 15 64 124 430 190 641 68 212 213 608
280 764 207 481 313 695 538 1085 56 96 105 177 109 178 4 2 8 8 8 13 0 25
325 518 494 749 93 127 357 463 381 485 6 6 34 37 61 69 162 195 600 477 962
620 331 132 563 147 757 49 157 -80 267 -201 386 -428 75 -143 121 -251 169
-397 36 -108 92 -312 104 -383 19 -111 26 -149 30 -163 3 -10 7 -37 10 -62 3
-25 8 -54 10 -65 2 -11 7 -49 11 -85 3 -36 8 -72 10 -80 2 -8 7 -45 10 -82 3
-37 8 -76 10 -87 2 -12 7 -57 10 -100 3 -44 8 -88 10 -99 22 -116 22 -775 0
-1032 -2 -25 -7 -79 -10 -120 -3 -41 -8 -102 -10 -135 -3 -33 -7 -76 -10 -95
-2 -19 -7 -64 -10 -100 -5 -52 -38 -315 -60 -485 -5 -38 -34 -231 -40 -265 -2
-14 -11 -70 -20 -125 -9 -55 -18 -111 -21 -125 -6 -25 -6 -25 23 5 15 17 51
57 78 90 28 33 97 116 155 185 137 162 131 155 135 187 2 15 11 75 19 133 9
58 18 125 21 150 5 41 10 77 20 150 2 14 6 49 9 78 10 89 16 146 21 182 2 19
7 64 10 100 3 36 8 81 10 100 3 19 7 67 10 105 3 39 7 90 10 115 3 25 7 86 10
135 3 50 8 106 10 125 18 147 25 880 11 1130 -10 171 -12 202 -31 330 -2 14
-7 48 -10 75 -46 345 -142 741 -266 1089 -98 276 -309 484 -571 562 -26 8 -50
15 -53 15 -2 0 -19 5 -37 10 -32 10 -231 22 -239 15z m-12432 -1416 c64 -17
150 -56 203 -90 8 -5 60 -30 114 -55 198 -90 384 -237 527 -414 123 -153 324
-516 452 -817 47 -109 178 -437 183 -454 0 -3 4 -12 7 -20 75 -177 232 -734
270 -955 3 -16 15 -79 27 -140 29 -151 64 -348 76 -420 2 -16 6 -41 9 -55 3
-14 7 -38 10 -55 3 -16 6 -39 9 -50 7 -41 26 -153 45 -275 11 -69 25 -159 32
-200 6 -41 13 -83 15 -92 5 -32 6 -32 -155 111 -41 36 -83 75 -95 86 -12 11
-44 40 -71 64 -256 228 -701 663 -866 846 -75 84 -195 228 -254 305 -28 36
-55 70 -61 76 -6 7 -48 67 -95 134 -46 68 -110 157 -142 199 -236 311 -325
432 -400 541 -47 69 -90 130 -96 137 -6 7 -11 15 -11 18 0 3 -17 32 -39 63
-282 418 -591 1075 -574 1223 14 118 90 226 173 247 48 13 53 14 200 38 215
35 388 37 507 4z m2424 -5508 c57 -38 172 -113 254 -167 193 -125 288 -205
402 -335 l22 -25 -197 0 c-174 0 -405 -9 -514 -20 l-36 -4 1 167 c1 187 -5
248 -37 375 -15 59 -18 86 -10 83 6 -2 58 -36 115 -74z m2609 -1057 c44 -3 63
-5 240 -26 47 -5 105 -12 130 -15 25 -3 56 -7 70 -9 14 -2 45 -7 70 -10 25 -3
57 -8 72 -11 15 -3 39 -7 55 -9 35 -5 140 -23 243 -42 35 -6 222 -44 240 -48
62 -14 109 -25 130 -29 14 -2 75 -16 135 -31 61 -15 119 -28 130 -31 142 -28
819 -209 1028 -275 156 -49 157 -50 153 -77 -8 -43 -15 -102 -21 -168 -3 -33
-8 -71 -10 -85 -2 -13 -7 -53 -10 -89 -3 -36 -7 -76 -9 -90 -2 -14 -7 -56 -10
-95 -4 -38 -9 -86 -11 -105 -7 -57 -16 -151 -20 -215 -3 -33 -7 -85 -10 -115
-6 -68 -12 -130 -20 -240 -4 -47 -10 -88 -14 -92 -4 -4 -58 24 -120 62 -62 39
-114 70 -116 70 -4 0 -138 83 -310 193 -160 102 -417 274 -593 396 -85 58
-164 113 -176 121 -53 36 -192 135 -203 145 -7 5 -62 46 -123 90 -100 71 -289
211 -315 232 -5 5 -75 58 -155 118 -80 61 -147 113 -150 116 -3 3 -57 46 -120
94 -63 49 -117 91 -120 95 -3 3 -39 32 -80 64 -41 33 -92 75 -113 93 l-38 34
63 -7 c35 -3 83 -8 108 -9z m3305 -808 c579 -229 1090 -490 1499 -768 75 -51
707 -674 758 -747 74 -107 96 -200 69 -295 -23 -81 -76 -116 -211 -141 -14 -2
-99 -21 -190 -41 -138 -31 -185 -37 -290 -38 -151 -2 -241 7 -365 35 -396 88
-812 250 -1365 532 -107 55 -205 104 -218 110 -23 11 -23 13 -17 131 3 66 8
138 10 160 2 22 7 78 10 125 9 134 15 211 20 260 2 25 7 79 10 120 11 142 15
185 20 230 6 62 13 134 20 205 11 123 17 170 21 187 6 20 2 21 219 -65z"/>
<path d="M4552 13503 c-95 -46 -122 -178 -72 -348 11 -38 23 -79 25 -90 3 -11
34 -78 69 -150 119 -240 284 -463 516 -695 234 -235 457 -393 642 -455 260
-86 378 26 323 307 -20 104 -128 332 -229 486 -128 195 -221 308 -400 487
-238 236 -444 381 -642 450 -69 25 -190 29 -232 8z"/>
<path d="M3123 12987 c-24 -6 -43 -14 -43 -18 0 -5 -5 -9 -11 -9 -14 0 -46
-35 -67 -75 -11 -21 -16 -56 -15 -115 1 -309 359 -832 848 -1240 424 -354 849
-506 987 -353 173 191 -107 754 -617 1243 -129 124 -300 264 -408 333 -29 19
-74 48 -100 65 -93 59 -254 132 -352 158 -71 19 -165 24 -222 11z"/>
</g>
</svg>
